<svg xmlns="http://www.w3.org/2000/svg" style="display: none;">
  <!-- Chrome Icon -->
  <symbol id="chrome-icon" viewBox="0 0 24 24">
    <circle cx="12" cy="12" r="10" fill="none" stroke="currentColor" stroke-width="2"/>
    <circle cx="12" cy="12" r="4" fill="none" stroke="currentColor" stroke-width="2"/>
    <path d="M12 2L15 8H9L12 2Z" fill="currentColor"/>
    <path d="M20.5 17L14.5 12L20.5 17Z" fill="currentColor"/>
    <path d="M3.5 17L9.5 12L3.5 17Z" fill="currentColor"/>
  </symbol>

  <!-- Automation Cog -->
  <symbol id="automation-icon" viewBox="0 0 24 24">
    <path d="M12 15.5A3.5 3.5 0 0 1 8.5 12A3.5 3.5 0 0 1 12 8.5a3.5 3.5 0 0 1 3.5 3.5a3.5 3.5 0 0 1-3.5 3.5m7.43-2.53c.04-.32.07-.64.07-.97c0-.33-.03-.66-.07-1l2.11-1.63c.19-.15.24-.42.12-.64l-2-3.46c-.12-.22-.39-.31-.61-.22l-2.49 1c-.52-.39-1.06-.73-1.69-.98l-.37-2.65A.506.506 0 0 0 14 2h-4c-.25 0-.46.18-.5.42l-.37 2.65c-.63.25-1.17.59-1.69.98l-2.49-1c-.22-.09-.49 0-.61.22l-2 3.46c-.13.22-.07.49.12.64L4.57 11c-.04.34-.07.67-.07 1c0 .33.03.65.07.97l-2.11 1.66c-.19.15-.25.42-.12.64l2 3.46c.12.22.39.3.61.22l2.49-1.01c.52.4 1.06.74 1.69.99l.37 2.65c.04.24.25.42.5.42h4c.25 0 .46-.18.5-.42l.37-2.65c.63-.26 1.17-.59 1.69-.99l2.49 1.01c.22.08.49 0 .61-.22l2-3.46c.12-.22.07-.49-.12-.64l-2.11-1.66Z" fill="currentColor"/>
  </symbol>

  <!-- Database Integration -->
  <symbol id="database-icon" viewBox="0 0 24 24">
    <ellipse cx="12" cy="5" rx="9" ry="3" fill="none" stroke="currentColor" stroke-width="2"/>
    <path d="M3 5v14c0 1.66 4.03 3 9 3s9-1.34 9-3V5" fill="none" stroke="currentColor" stroke-width="2"/>
    <path d="M3 12c0 1.66 4.03 3 9 3s9-1.34 9-3" fill="none" stroke="currentColor" stroke-width="2"/>
  </symbol>

  <!-- Lightning Bolt -->
  <symbol id="lightning-icon" viewBox="0 0 24 24">
    <polygon points="13,2 3,14 12,14 11,22 21,10 12,10 13,2" fill="currentColor"/>
  </symbol>

  <!-- Money/Dollar -->
  <symbol id="money-icon" viewBox="0 0 24 24">
    <line x1="12" y1="1" x2="12" y2="23" stroke="currentColor" stroke-width="2"/>
    <path d="M17 5H9.5a3.5 3.5 0 0 0 0 7h5a3.5 3.5 0 0 1 0 7H6" fill="none" stroke="currentColor" stroke-width="2"/>
  </symbol>

  <!-- Chart/Analytics -->
  <symbol id="chart-icon" viewBox="0 0 24 24">
    <line x1="18" y1="20" x2="18" y2="10" stroke="currentColor" stroke-width="2"/>
    <line x1="12" y1="20" x2="12" y2="4" stroke="currentColor" stroke-width="2"/>
    <line x1="6" y1="20" x2="6" y2="14" stroke="currentColor" stroke-width="2"/>
  </symbol>

  <!-- Robot -->
  <symbol id="robot-icon" viewBox="0 0 24 24">
    <rect x="3" y="11" width="18" height="10" rx="2" ry="2" fill="none" stroke="currentColor" stroke-width="2"/>
    <circle cx="12" cy="5" r="2" fill="none" stroke="currentColor" stroke-width="2"/>
    <path d="M12 7v4" stroke="currentColor" stroke-width="2"/>
    <line x1="8" y1="16" x2="8" y2="16" stroke="currentColor" stroke-width="3"/>
    <line x1="16" y1="16" x2="16" y2="16" stroke="currentColor" stroke-width="3"/>
  </symbol>

  <!-- Code -->
  <symbol id="code-icon" viewBox="0 0 24 24">
    <polyline points="16,18 22,12 16,6" fill="none" stroke="currentColor" stroke-width="2"/>
    <polyline points="8,6 2,12 8,18" fill="none" stroke="currentColor" stroke-width="2"/>
  </symbol>

  <!-- Shield/Security -->
  <symbol id="shield-icon" viewBox="0 0 24 24">
    <path d="M12,1L3,5V11C3,16.55 6.84,21.74 12,23C17.16,21.74 21,16.55 21,11V5L12,1M12,7C13.4,7 14.8,8.6 14.8,10V11C15.4,11 16,11.4 16,12V16C16,16.6 15.6,17 15,17H9C8.4,17 8,16.6 8,16V12C8,11.4 8.4,11 9,11V10C9,8.6 10.6,7 12,7M12,8.2C11.2,8.2 10.2,9.2 10.2,10V11H13.8V10C13.8,9.2 12.8,8.2 12,8.2Z" fill="currentColor"/>
  </symbol>

  <!-- Email -->
  <symbol id="email-icon" viewBox="0 0 24 24">
    <path d="M4 4h16c1.1 0 2 .9 2 2v12c0 1.1-.9 2-2 2H4c-1.1 0-2-.9-2-2V6c0-1.1.9-2 2-2z" fill="none" stroke="currentColor" stroke-width="2"/>
    <polyline points="22,6 12,13 2,6" fill="none" stroke="currentColor" stroke-width="2"/>
  </symbol>

  <!-- Phone -->
  <symbol id="phone-icon" viewBox="0 0 24 24">
    <path d="M22 16.92v3a2 2 0 0 1-2.18 2 19.79 19.79 0 0 1-8.63-3.07 19.5 19.5 0 0 1-6-6 19.79 19.79 0 0 1-3.07-8.67A2 2 0 0 1 4.11 2h3a2 2 0 0 1 2 1.72 12.84 12.84 0 0 0 .7 2.81 2 2 0 0 1-.45 2.11L8.09 9.91a16 16 0 0 0 6 6l1.27-1.27a2 2 0 0 1 2.11-.45 12.84 12.84 0 0 0 2.81.7A2 2 0 0 1 22 16.92z" fill="none" stroke="currentColor" stroke-width="2"/>
  </symbol>

  <!-- LinkedIn -->
  <symbol id="linkedin-icon" viewBox="0 0 24 24">
    <path d="M16 8a6 6 0 0 1 6 6v7h-4v-7a2 2 0 0 0-2-2 2 2 0 0 0-2 2v7h-4v-7a6 6 0 0 1 6-6z" fill="currentColor"/>
    <rect x="2" y="9" width="4" height="12" fill="currentColor"/>
    <circle cx="4" cy="4" r="2" fill="currentColor"/>
  </symbol>

  <!-- GitHub -->
  <symbol id="github-icon" viewBox="0 0 24 24">
    <path d="M9 19c-5 1.5-5-2.5-7-3m14 6v-3.87a3.37 3.37 0 0 0-.94-2.61c3.14-.35 6.44-1.54 6.44-7A5.44 5.44 0 0 0 20 4.77 5.07 5.07 0 0 0 19.91 1S18.73.65 16 2.48a13.38 13.38 0 0 0-7 0C6.27.65 5.09 1 5.09 1A5.07 5.07 0 0 0 5 4.77a5.44 5.44 0 0 0-1.5 3.78c0 5.42 3.3 6.61 6.44 7A3.37 3.37 0 0 0 9 18.13V22" fill="none" stroke="currentColor" stroke-width="2"/>
  </symbol>

  <!-- Twitter -->
  <symbol id="twitter-icon" viewBox="0 0 24 24">
    <path d="M23 3a10.9 10.9 0 0 1-3.14 1.53 4.48 4.48 0 0 0-7.86 3v1A10.66 10.66 0 0 1 3 4s-4 9 5 13a11.64 11.64 0 0 1-7 2c9 5 20 0 20-11.5a4.5 4.5 0 0 0-.08-.83A7.72 7.72 0 0 0 23 3z" fill="currentColor"/>
  </symbol>

  <!-- WhatsApp -->
  <symbol id="whatsapp-icon" viewBox="0 0 24 24">
    <path d="M17.472 14.382c-.297-.149-1.758-.867-2.03-.967-.273-.099-.471-.148-.67.15-.197.297-.767.966-.94 1.164-.173.199-.347.223-.644.075-.297-.15-1.255-.463-2.39-1.475-.883-.788-1.48-1.761-1.653-2.059-.173-.297-.018-.458.13-.606.134-.133.298-.347.446-.52.149-.174.198-.298.298-.497.099-.198.05-.371-.025-.52-.075-.149-.669-1.612-.916-2.207-.242-.579-.487-.5-.669-.51-.173-.008-.371-.01-.57-.01-.198 0-.52.074-.792.372-.272.297-1.04 1.016-1.04 2.479 0 1.462 1.065 2.875 1.213 3.074.149.198 2.096 3.2 5.077 4.487.709.306 1.262.489 1.694.625.712.227 1.36.195 1.871.118.571-.085 1.758-.719 2.006-1.413.248-.694.248-1.289.173-1.413-.074-.124-.272-.198-.57-.347m-5.421 7.403h-.004a9.87 9.87 0 01-5.031-1.378l-.361-.214-3.741.982.998-3.648-.235-.374a9.86 9.86 0 01-1.51-5.26c.001-5.45 4.436-9.884 9.888-9.884 2.64 0 5.122 1.03 6.988 2.898a9.825 9.825 0 012.893 6.994c-.003 5.45-4.437 9.884-9.885 9.884m8.413-18.297A11.815 11.815 0 0012.05 0C5.495 0 .16 5.335.157 11.892c0 2.096.547 4.142 1.588 5.945L.057 24l6.305-1.654a11.882 11.882 0 005.683 1.448h.005c6.554 0 11.89-5.335 11.893-11.893A11.821 11.821 0 0020.894 3.488" fill="currentColor"/>
  </symbol>

  <!-- Success Checkmark -->
  <symbol id="check-icon" viewBox="0 0 24 24">
    <polyline points="20,6 9,17 4,12" fill="none" stroke="currentColor" stroke-width="2"/>
  </symbol>

  <!-- Error X -->
  <symbol id="x-icon" viewBox="0 0 24 24">
    <line x1="18" y1="6" x2="6" y2="18" stroke="currentColor" stroke-width="2"/>
    <line x1="6" y1="6" x2="18" y2="18" stroke="currentColor" stroke-width="2"/>
  </symbol>

  <!-- Clock/Time -->
  <symbol id="clock-icon" viewBox="0 0 24 24">
    <circle cx="12" cy="12" r="10" fill="none" stroke="currentColor" stroke-width="2"/>
    <polyline points="12,6 12,12 16,14" fill="none" stroke="currentColor" stroke-width="2"/>
  </symbol>

  <!-- Users -->
  <symbol id="users-icon" viewBox="0 0 24 24">
    <path d="M17 21v-2a4 4 0 0 0-4-4H5a4 4 0 0 0-4 4v2" fill="none" stroke="currentColor" stroke-width="2"/>
    <circle cx="9" cy="7" r="4" fill="none" stroke="currentColor" stroke-width="2"/>
    <path d="M23 21v-2a4 4 0 0 0-3-3.87" fill="none" stroke="currentColor" stroke-width="2"/>
    <path d="M16 3.13a4 4 0 0 1 0 7.75" fill="none" stroke="currentColor" stroke-width="2"/>
  </symbol>

  <!-- Star -->
  <symbol id="star-icon" viewBox="0 0 24 24">
    <polygon points="12,2 15.09,8.26 22,9.27 17,14.14 18.18,21.02 12,17.77 5.82,21.02 7,14.14 2,9.27 8.91,8.26 12,2" fill="currentColor"/>
  </symbol>

  <!-- Rocket -->
  <symbol id="rocket-icon" viewBox="0 0 24 24">
    <path d="M4.5 16.5c-1.5 1.26-2 5-2 5s3.74-.5 5-2c.71-.84.7-2.13-.09-2.91a2.18 2.18 0 0 0-2.91-.09z" fill="currentColor"/>
    <path d="M12 15l-3-3a22 22 0 0 1 2-3.95A12.88 12.88 0 0 1 22 2c0 2.72-.78 7.5-6 11a22.35 22.35 0 0 1-4 2z" fill="currentColor"/>
    <path d="M9 12H4s.55-3.03 2-4c1.62-1.08 5 0 5 0" fill="currentColor"/>
    <path d="M12 15v5s3.03-.55 4-2c1.08-1.62 0-5 0-5" fill="currentColor"/>
  </symbol>
</svg>
